<svg width="24" height="25" viewBox="0 0 24 25" fill="none" xmlns="http://www.w3.org/2000/svg">
<g clip-path="url(#clip0_10_18)">
<path fill-rule="evenodd" clip-rule="evenodd" d="M12.5 0.5C5.59375 0.5 0 6.23524 0 13.3162C0 18.9873 3.57812 23.7774 8.54688 25.4755C9.17188 25.5877 9.40625 25.2032 9.40625 24.8667C9.40625 24.5624 9.39062 23.5531 9.39062 22.4797C6.25 23.0725 5.4375 21.6947 5.1875 20.9738C5.04688 20.6054 4.4375 19.4679 3.90625 19.1636C3.46875 18.9232 2.84375 18.3305 3.89062 18.3145C4.875 18.2985 5.57812 19.2437 5.8125 19.6281C6.9375 21.5666 8.73437 21.0219 9.45312 20.6855C9.5625 19.8524 9.89062 19.2917 10.25 18.9713C7.46875 18.6509 4.5625 17.5455 4.5625 12.6433C4.5625 11.2496 5.04688 10.0961 5.84375 9.19898C5.71875 8.87857 5.28125 7.56492 5.96875 5.80269C5.96875 5.80269 7.01562 5.46627 9.40625 7.11635C10.4062 6.82799 11.4687 6.6838 12.5312 6.6838C13.5937 6.6838 14.6562 6.82799 15.6562 7.11635C18.0469 5.45025 19.0938 5.80269 19.0938 5.80269C19.7812 7.56492 19.3438 8.87857 19.2188 9.19898C20.0156 10.0961 20.5 11.2335 20.5 12.6433C20.5 17.5615 17.5781 18.6509 14.7969 18.9713C15.25 19.3718 15.6406 20.1408 15.6406 21.3423C15.6406 23.0565 15.625 24.4342 15.625 24.8667C15.625 25.2032 15.8594 25.6037 16.4844 25.4755C18.9658 24.6165 21.1221 22.9814 22.6496 20.8001C24.1772 18.6189 24.9993 16.0015 25 13.3162C25 6.23524 19.4062 0.5 12.5 0.5Z" fill="black"/>
</g>
<defs>
<clipPath id="clip0_10_18">
<rect width="24" height="24" fill="white" transform="translate(0 0.5)"/>
</clipPath>
</defs>
</svg>
