<svg width="25" height="25" viewBox="0 0 25 25" fill="none" xmlns="http://www.w3.org/2000/svg">
    <g clip-path="url(#clip0_10_22)">
<path d="M21.3011 21.3014H17.5969V15.5004C17.5969 14.1171 17.5721 12.3363 15.6703 12.3363C13.741 12.3363 13.4458 13.8435 13.4458 15.3997V21.3011H9.74167V9.37176H13.2976V11.002H13.3474C13.7033 10.3935 14.2176 9.89296 14.8354 9.55361C15.4533 9.21426 16.1516 9.04885 16.856 9.07499C20.6104 9.07499 21.3026 11.5445 21.3026 14.7572L21.3011 21.3014V21.3014ZM5.56199 7.7412C4.37478 7.74139 3.41218 6.77909 3.41199 5.59188C3.41179 4.40467 4.374 3.44208 5.56121 3.44188C6.74841 3.44159 7.71101 4.40389 7.71121 5.5911C7.71131 6.16122 7.48494 6.70803 7.08188 7.11125C6.67883 7.51447 6.13211 7.74107 5.56199 7.7412M7.41414 21.3015H3.70603V9.37176H7.41404V21.3014L7.41414 21.3015ZM23.1477 0.00174323H1.8447C0.837866 -0.0095849 0.0121826 0.796958 -0.00012207 1.80379V23.1957C0.011792 24.203 0.837378 25.0103 1.8446 24.9998H23.1477C24.1571 25.0123 24.9859 24.205 24.9999 23.1957V1.80213C24.9855 0.793345 24.1566 -0.0131005 23.1477 8.30705e-05" fill="#0A66C2"/>
    </g>
    <defs>
        <clipPath id="clip0_10_22">
            <rect width="25" height="25" fill="white"/>
        </clipPath>
    </defs>
</svg>