<svg width="25" height="25" viewBox="0 0 25 25" fill="none" xmlns="http://www.w3.org/2000/svg">
<g clip-path="url(#clip0_10_20)">
<path d="M25 3.04426C24.0638 3.55225 23.0709 3.88569 22.0541 4.0335C23.1132 3.25598 23.9264 2.02476 24.3093 0.557777C23.3025 1.28958 22.201 1.80518 21.0523 2.0823C20.1167 0.861366 18.7838 0.0983276 17.3085 0.0983276C14.4759 0.0983276 12.1793 2.91125 12.1793 6.38062C12.1793 6.87309 12.2247 7.35251 12.3121 7.81244C8.04941 7.55036 4.27012 5.04928 1.74033 1.24833C1.29893 2.1762 1.046 3.2555 1.046 4.4067C1.046 6.58637 1.95156 8.50921 3.32773 9.63589C2.51323 9.60464 1.71665 9.33518 1.00449 8.85C1.0042 8.87632 1.0042 8.90263 1.0042 8.92907C1.0042 11.973 2.77217 14.5122 5.11846 15.0894C4.36317 15.341 3.57093 15.3778 2.80225 15.197C3.45488 17.6929 5.34912 19.5092 7.59346 19.56C5.83809 21.245 3.62646 22.2494 1.22354 22.2494C0.809473 22.2494 0.40127 22.2196 0 22.1616C2.26982 23.9441 4.96582 24.9842 7.8623 24.9842C17.2966 24.9842 22.4555 15.4111 22.4555 7.10921C22.4555 6.83672 22.4506 6.56579 22.4406 6.29641C23.4448 5.40728 24.3114 4.306 25 3.04426Z" fill="#55ACEE"/>
</g>
<defs>
<clipPath id="clip0_10_20">
<rect width="25" height="25" fill="white"/>
</clipPath>
</defs>
</svg>
